Coordinates
version=1
nRows=6
nColumns=36
inDegrees=yes

Units are S.I. units (second, meters, Newtons, ...)
If the header above contains a line with 'inDegrees', this indicates whether rotational values are in degrees (yes) or radians (no).

endheader
time	pelvis_tilt	pelvis_list	pelvis_rotation	pelvis_tx	pelvis_ty	pelvis_tz	hip_flexion_r	hip_adduction_r	hip_rotation_r	knee_angle_r	knee_angle_r_beta	ankle_angle_r	subtalar_angle_r	mtp_angle_r	hip_flexion_l	hip_adduction_l	hip_rotation_l	knee_angle_l	knee_angle_l_beta	ankle_angle_l	subtalar_angle_l	mtp_angle_l	lumbar_extension	lumbar_bending	lumbar_rotation	arm_flex_r	arm_add_r	arm_rot_r	elbow_flex_r	pro_sup_r	arm_flex_l	arm_add_l	arm_rot_l	elbow_flex_l	pro_sup_l
      4.48333330	     -9.47540356	     -0.56159653	      2.85404998	      0.21635522	      0.86854895	     -0.08279373	     46.21301780	     -8.63929229	     -2.48222867	     59.58169283	      1.03989671	     21.33719852	    -14.92300460	     -7.49999987	     45.41287042	     -6.88383047	      4.24211467	     62.23316396	      1.08617362	     22.43551763	    -11.53651924	     -7.49999987	    -20.56987928	      2.48696270	     -4.52195470	     45.58396196	    -29.98931708	     22.15390323	     34.00494904	     54.30570748	     53.59843954	    -34.20529635	      8.40865751	     41.93343116	     32.43932517
      4.48750000	     -9.60172849	     -0.68200081	      2.61859248	      0.21648702	      0.86894690	     -0.08277797	     46.31521715	     -8.22712671	     -2.01847641	     59.34445095	      1.03575606	     21.16665962	    -15.12668879	     -7.49999987	     45.44437393	     -7.15351268	      4.02344119	     62.13081517	      1.08438729	     22.32098285	    -11.52722626	     -7.49999987	    -20.02588865	      2.48401657	     -4.21217503	     45.60280523	    -30.02635312	     21.99568058	     33.74541121	     54.19923359	     53.71182533	    -33.86845591	      7.59338176	     41.65003957	     31.93968349
      4.49166670	     -9.90962632	     -0.73843631	      2.33150674	      0.21686517	      0.87184679	     -0.08248386	     46.32571921	     -8.00107316	     -1.84964040	     58.66223369	      1.02384912	     21.30810481	    -14.65553740	     -7.49999987	     45.49611104	     -7.34352953	      3.82477827	     61.78934181	      1.07842746	     22.24201509	    -11.56903660	     -7.49999987	    -19.51968809	      2.40980243	     -3.95138740	     45.11273081	    -30.28290927	     21.63646932	     35.04651702	     54.69174675	     53.31042445	    -34.00369787	      6.96914471	     42.70175694	     33.72310459
      4.49583330	    -10.22589836	     -0.57447272	      2.07532887	      0.21756204	      0.87441528	     -0.08194753	     46.34385284	     -8.01688387	     -1.67160045	     58.05203321	      1.01319912	     21.14891318	    -14.52081243	     -7.49999987	     45.50693670	     -7.29609567	      3.50743052	     61.55567434	      1.07434919	     21.96626497	    -11.50447848	     -7.49999987	    -18.96538323	      2.12376147	     -3.88690862	     45.08306199	    -30.05848602	     22.06424542	     34.65873304	     54.61418606	     53.33969250	    -33.97120830	      6.69139938	     42.29270268	     33.21174390
      4.50000000	    -10.38549319	     -0.51805939	      1.68749412	      0.21805735	      0.87709285	     -0.08160596	     46.07179126	     -7.73463932	     -1.36201454	     57.24707052	      0.99914987	     20.63120380	    -14.82946701	     -7.49999987	     45.16073326	     -7.41593144	      3.28437758	     60.78611525	      1.06091785	     21.64688580	    -11.26478889	     -7.49999987	    -18.70193173	      1.98080262	     -3.52961656	     44.86658279	    -30.12751778	     22.33113568	     34.92897226	     54.62890744	     53.06894116	    -33.95996094	      6.52056253	     42.53784477	     33.14033333
      4.50416670	    -10.54311416	     -0.60689091	      1.38897136	      0.21873784	      0.88304591	     -0.08163636	     45.68633838	     -7.47038475	     -1.35552680	     56.27369805	      0.98216131	     20.18284731	    -14.64867592	     -7.49999987	     44.81573810	     -7.64888752	      3.13395903	     59.86894400	      1.04491019	     21.23625192	    -11.16417701	     -7.49999987	    -18.34106318	      1.99699834	     -3.34028673	     44.61057365	    -30.00435351	     22.47358610	     34.95208219	     54.61687805	     52.73192688	    -33.88100827	      6.62018119	     42.53668077	     33.01701672
